<?xml version="1.0" encoding="UTF-8" standalone="no"?>
<!-- Created with Inkscape (http://www.inkscape.org/) -->

<svg
   xmlns:dc="http://purl.org/dc/elements/1.1/"
   xmlns:cc="http://creativecommons.org/ns#"
   xmlns:rdf="http://www.w3.org/1999/02/22-rdf-syntax-ns#"
   xmlns:svg="http://www.w3.org/2000/svg"
   xmlns="http://www.w3.org/2000/svg"
   xmlns:sodipodi="http://sodipodi.sourceforge.net/DTD/sodipodi-0.dtd"
   xmlns:inkscape="http://www.inkscape.org/namespaces/inkscape"
   width="744.09448819"
   height="1052.3622047"
   id="svg2"
   version="1.1"
   inkscape:version="0.48.3.1 r9886"
   sodipodi:docname="motorconfig.svg"
   inkscape:export-filename="/home/j/projects/hdctrl/doc/motorconfig.png"
   inkscape:export-xdpi="300"
   inkscape:export-ydpi="300">
  <sodipodi:namedview
     id="base"
     pagecolor="#ffffff"
     bordercolor="#666666"
     borderopacity="1.0"
     inkscape:pageopacity="0.0"
     inkscape:pageshadow="2"
     inkscape:zoom="2.3269531"
     inkscape:cx="302.84375"
     inkscape:cy="643.19092"
     inkscape:document-units="px"
     inkscape:current-layer="layer1"
     showgrid="false"
     inkscape:window-width="1278"
     inkscape:window-height="1007"
     inkscape:window-x="1440"
     inkscape:window-y="15"
     inkscape:window-maximized="0" />
  <defs
     id="defs4">
    <marker
       inkscape:stockid="DotS"
       orient="auto"
       refY="0.0"
       refX="0.0"
       id="DotS"
       style="overflow:visible">
      <path
         id="path3832"
         d="M -2.5,-1.0 C -2.5,1.7600000 -4.7400000,4.0 -7.5,4.0 C -10.260000,4.0 -12.5,1.7600000 -12.5,-1.0 C -12.5,-3.7600000 -10.260000,-6.0 -7.5,-6.0 C -4.7400000,-6.0 -2.5,-3.7600000 -2.5,-1.0 z "
         style="fill-rule:evenodd;stroke:#000000;stroke-width:1.0pt"
         transform="scale(0.2) translate(7.4, 1)" />
    </marker>
    <marker
       inkscape:stockid="DotSK"
       orient="auto"
       refY="0.0"
       refX="0.0"
       id="DotSK"
       style="overflow:visible">
      <path
         id="path4392"
         d="M -2.5,-1.0 C -2.5,1.7600000 -4.7400000,4.0 -7.5,4.0 C -10.260000,4.0 -12.5,1.7600000 -12.5,-1.0 C -12.5,-3.7600000 -10.260000,-6.0 -7.5,-6.0 C -4.7400000,-6.0 -2.5,-3.7600000 -2.5,-1.0 z "
         style="stroke:#c0ff00;stroke-width:1.0pt;fill:#c0ff00;fill-rule:evenodd"
         transform="scale(0.2) translate(7.4, 1)" />
    </marker>
    <marker
       inkscape:stockid="DotSE"
       orient="auto"
       refY="0.0"
       refX="0.0"
       id="DotSE"
       style="overflow:visible">
      <path
         id="path4395"
         d="M -2.5,-1.0 C -2.5,1.7600000 -4.7400000,4.0 -7.5,4.0 C -10.260000,4.0 -12.5,1.7600000 -12.5,-1.0 C -12.5,-3.7600000 -10.260000,-6.0 -7.5,-6.0 C -4.7400000,-6.0 -2.5,-3.7600000 -2.5,-1.0 z "
         style="stroke:#c0ff00;stroke-width:1.0pt;fill:#c0ff00;fill-rule:evenodd"
         transform="scale(0.2) translate(7.4, 1)" />
    </marker>
    <marker
       inkscape:stockid="DotSKy"
       orient="auto"
       refY="0.0"
       refX="0.0"
       id="DotSKy"
       style="overflow:visible">
      <path
         id="path4425"
         d="M -2.5,-1.0 C -2.5,1.7600000 -4.7400000,4.0 -7.5,4.0 C -10.260000,4.0 -12.5,1.7600000 -12.5,-1.0 C -12.5,-3.7600000 -10.260000,-6.0 -7.5,-6.0 C -4.7400000,-6.0 -2.5,-3.7600000 -2.5,-1.0 z "
         style="fill-rule:evenodd;stroke:#3fff00;stroke-width:1.0pt;fill:#3fff00"
         transform="scale(0.2) translate(7.4, 1)" />
    </marker>
    <marker
       inkscape:stockid="DotSEW"
       orient="auto"
       refY="0.0"
       refX="0.0"
       id="DotSEW"
       style="overflow:visible">
      <path
         id="path4428"
         d="M -2.5,-1.0 C -2.5,1.7600000 -4.7400000,4.0 -7.5,4.0 C -10.260000,4.0 -12.5,1.7600000 -12.5,-1.0 C -12.5,-3.7600000 -10.260000,-6.0 -7.5,-6.0 C -4.7400000,-6.0 -2.5,-3.7600000 -2.5,-1.0 z "
         style="fill-rule:evenodd;stroke:#3fff00;stroke-width:1.0pt;fill:#3fff00"
         transform="scale(0.2) translate(7.4, 1)" />
    </marker>
    <marker
       inkscape:stockid="DotSKyT"
       orient="auto"
       refY="0.0"
       refX="0.0"
       id="DotSKyT"
       style="overflow:visible">
      <path
         id="path4467"
         d="M -2.5,-1.0 C -2.5,1.7600000 -4.7400000,4.0 -7.5,4.0 C -10.260000,4.0 -12.5,1.7600000 -12.5,-1.0 C -12.5,-3.7600000 -10.260000,-6.0 -7.5,-6.0 C -4.7400000,-6.0 -2.5,-3.7600000 -2.5,-1.0 z "
         style="stroke:#00ff82;stroke-width:1.0pt;fill:#00ff82;fill-rule:evenodd"
         transform="scale(0.2) translate(7.4, 1)" />
    </marker>
    <marker
       inkscape:stockid="DotSEWW"
       orient="auto"
       refY="0.0"
       refX="0.0"
       id="DotSEWW"
       style="overflow:visible">
      <path
         id="path4470"
         d="M -2.5,-1.0 C -2.5,1.7600000 -4.7400000,4.0 -7.5,4.0 C -10.260000,4.0 -12.5,1.7600000 -12.5,-1.0 C -12.5,-3.7600000 -10.260000,-6.0 -7.5,-6.0 C -4.7400000,-6.0 -2.5,-3.7600000 -2.5,-1.0 z "
         style="stroke:#00ff82;stroke-width:1.0pt;fill:#00ff82;fill-rule:evenodd"
         transform="scale(0.2) translate(7.4, 1)" />
    </marker>
    <marker
       inkscape:stockid="DotSKyS"
       orient="auto"
       refY="0.0"
       refX="0.0"
       id="DotSKyS"
       style="overflow:visible">
      <path
         id="path5497"
         d="M -2.5,-1.0 C -2.5,1.7600000 -4.7400000,4.0 -7.5,4.0 C -10.260000,4.0 -12.5,1.7600000 -12.5,-1.0 C -12.5,-3.7600000 -10.260000,-6.0 -7.5,-6.0 C -4.7400000,-6.0 -2.5,-3.7600000 -2.5,-1.0 z "
         style="stroke:#61ff00;stroke-width:1.0pt;fill:#61ff00;fill-rule:evenodd"
         transform="scale(0.2) translate(7.4, 1)" />
    </marker>
    <marker
       inkscape:stockid="DotSKc"
       orient="auto"
       refY="0.0"
       refX="0.0"
       id="DotSKc"
       style="overflow:visible">
      <path
         id="path5500"
         d="M -2.5,-1.0 C -2.5,1.7600000 -4.7400000,4.0 -7.5,4.0 C -10.260000,4.0 -12.5,1.7600000 -12.5,-1.0 C -12.5,-3.7600000 -10.260000,-6.0 -7.5,-6.0 C -4.7400000,-6.0 -2.5,-3.7600000 -2.5,-1.0 z "
         style="fill-rule:evenodd;stroke:#fffb00;stroke-width:1.0pt;fill:#fffb00"
         transform="scale(0.2) translate(7.4, 1)" />
    </marker>
    <marker
       inkscape:stockid="DotSEWW7"
       orient="auto"
       refY="0.0"
       refX="0.0"
       id="DotSEWW7"
       style="overflow:visible">
      <path
         id="path5503"
         d="M -2.5,-1.0 C -2.5,1.7600000 -4.7400000,4.0 -7.5,4.0 C -10.260000,4.0 -12.5,1.7600000 -12.5,-1.0 C -12.5,-3.7600000 -10.260000,-6.0 -7.5,-6.0 C -4.7400000,-6.0 -2.5,-3.7600000 -2.5,-1.0 z "
         style="fill-rule:evenodd;stroke:#00ffcf;stroke-width:1.0pt;fill:#00ffcf"
         transform="scale(0.2) translate(7.4, 1)" />
    </marker>
  </defs>
  <metadata
     id="metadata7">
    <rdf:RDF>
      <cc:Work
         rdf:about="">
        <dc:format>image/svg+xml</dc:format>
        <dc:type
           rdf:resource="http://purl.org/dc/dcmitype/StillImage" />
        <dc:title></dc:title>
      </cc:Work>
    </rdf:RDF>
  </metadata>
  <g
     inkscape:label="Layer 1"
     inkscape:groupmode="layer"
     id="layer1">
    <rect
       y="329.32611"
       x="121.23383"
       height="194.24544"
       width="194.24544"
       id="rect5477"
       style="fill:#000000;fill-opacity:1;stroke:none" />
    <g
       id="g5540">
      <path
         inkscape:connector-curvature="0"
         id="path3759"
         d="m 217.45174,349.72663 0,22.86343 6.8992,6.8992 -10.72564,10.72564 9.1163,9.11631 -8.05273,8.05273 7.9008,7.90079 -8.35661,8.35661 4.13494,4.13494 0,12.30455"
         style="stroke-linejoin:round;marker-end:none;stroke-opacity:1;marker-start:url(#DotSKc);stroke:#fffb00;stroke-linecap:round;stroke-miterlimit:4;stroke-dasharray:none;stroke-width:4;fill:none" />
      <path
         style="stroke-linejoin:round;marker-end:none;stroke-opacity:1;marker-start:url(#DotSKyS);stroke:#61ff00;stroke-linecap:round;stroke-miterlimit:4;stroke-dasharray:none;stroke-width:4;fill:none"
         d="m 282.82414,503.19505 -16.16689,-16.16689 -9.75694,0 0,-15.16834 -12.8924,-1e-5 0,-11.38828 -11.17341,1e-5 0,-11.81803 -5.84769,0 -8.70063,-8.70063"
         id="path4413"
         inkscape:connector-curvature="0" />
      <path
         inkscape:connector-curvature="0"
         id="path4451"
         d="m 218.31378,440.06602 -16.16689,16.16689 -9.75694,0 0,15.16834 -12.8924,10e-6 0,11.38828 -11.17341,-10e-6 0,11.81803 -5.84769,0 -8.70063,8.70063"
         style="stroke-linejoin:round;marker-end:url(#DotSEWW7);stroke-opacity:1;marker-start:none;stroke:#00ffcf;stroke-linecap:round;stroke-miterlimit:4;stroke-dasharray:none;stroke-width:4;fill:none" />
      <path
         sodipodi:type="arc"
         style="fill:#ffffff;fill-opacity:1;stroke:none"
         id="path5469"
         sodipodi:cx="214.3898"
         sodipodi:cy="346.1275"
         sodipodi:rx="1.7995635"
         sodipodi:ry="1.7995635"
         d="m 216.18936,346.1275 a 1.7995635,1.7995635 0 1 1 -3.59912,0 1.7995635,1.7995635 0 1 1 3.59912,0 z"
         transform="matrix(2.8208955,0,0,2.8208955,-386.32569,-534.80459)" />
    </g>
  </g>
</svg>
